<?xml version="1.0" encoding="UTF-8" standalone="no"?>
<svg
   width="168"
   height="119"
   viewBox="0 0 168 119"
   fill="none"
   version="1.1"
   id="svg44"
   sodipodi:docname="flights.svg"
   inkscape:version="1.1 (c4e8f9ed74, 2021-05-24)"
   xmlns:inkscape="http://www.inkscape.org/namespaces/inkscape"
   xmlns:sodipodi="http://sodipodi.sourceforge.net/DTD/sodipodi-0.dtd"
   xmlns="http://www.w3.org/2000/svg"
   xmlns:svg="http://www.w3.org/2000/svg">
  <defs
     id="defs48" />
  <sodipodi:namedview
     id="namedview46"
     pagecolor="#ffffff"
     bordercolor="#999999"
     borderopacity="1"
     inkscape:pageshadow="0"
     inkscape:pageopacity="0"
     inkscape:pagecheckerboard="false"
     showgrid="false"
     height="153px"
     inkscape:zoom="1.8701299"
     inkscape:cx="197.84722"
     inkscape:cy="84.486111"
     inkscape:window-width="1366"
     inkscape:window-height="713"
     inkscape:window-x="0"
     inkscape:window-y="27"
     inkscape:window-maximized="1"
     inkscape:current-layer="svg44" />
  <g
     id="g71"
     transform="matrix(1.0194371,0,0,1.0194371,-0.03772872,-23.480445)">
    <path
       d="m 34.955891,69.197129 c 0,14.386368 11.66226,26.048628 26.048628,26.048628 h 39.072941 c 3.99615,0 7.23573,-3.239436 7.23573,-7.23573 V 38.807062 c 0,-7.992298 -6.47916,-14.47146 -14.471458,-14.47146 H 42.191621 c -3.996294,0 -7.23573,3.239581 -7.23573,7.23573 z"
       fill="#fff1da"
       id="path2"
       style="stroke-width:1.44715" />
    <path
       d="m 105.26389,89.37237 c -1.9658,0.440367 -3.88038,1.255834 -5.624913,2.395316 -4.545197,2.896174 -7.189567,7.03038 -5.906093,9.233084 1.283619,2.2027 6.008695,1.63932 10.553746,-1.256849 1.76812,-1.099252 3.33886,-2.503997 4.61553,-4.127695 0.59232,-0.784497 0.69868,-1.762045 0.27148,-2.492709 l -1.6674,-2.861586 c -0.4243,-0.73298 -1.30417,-1.081597 -2.24235,-0.889561 z"
       fill="#d5d6db"
       id="path4"
       style="stroke-width:1.44715" />
    <path
       d="m 93.850248,50.309413 c -1.425439,0.31953 -2.813831,0.911123 -4.079071,1.737443 -3.294862,2.09952 -5.213488,5.097138 -4.283552,6.693051 0.929936,1.595912 4.357502,1.187094 7.652074,-0.912281 1.282027,-0.797522 2.420786,-1.816603 3.34667,-2.994145 0.429079,-0.568584 0.505922,-1.276673 0.196233,-1.806473 l -1.207209,-2.072023 c -0.307229,-0.531392 -0.944842,-0.784643 -1.625145,-0.645572 z"
       fill="#d5d6db"
       id="path6"
       style="stroke-width:1.44715" />
    <path
       d="m 75.306374,51.945411 c -0.317359,-0.03545 -0.655702,0.04906 -0.949038,0.236464 l -7.739627,4.932163 c -0.647453,0.411424 -0.906492,1.203447 -0.578135,1.76957 0.07511,0.129665 0.177999,0.240516 0.302743,0.325898 l 19.0757,13.147176 25.807973,-16.44638 z"
       fill="#029bc5"
       id="path8"
       style="stroke-width:1.44715" />
    <path
       d="M 156.89213,50.086263 86.65909,94.299613 45.107475,110.83456 23.916771,115.04575 21.585419,111.08492 138.6523,38.805036 c 3.48907,-2.163339 7.3761,-3.49124 11.26603,-3.84883 1.70474,-0.147464 3.38777,-0.09074 5.01002,0.168014 1.43846,0.218085 2.80312,0.63877 4.05201,1.249611 1.39505,0.692025 4.05056,0.771907 4.91016,2.150748 0.003,-0.0022 2.0318,6.328225 -6.99839,11.561684 z"
       fill="#e1e6e9"
       id="path10"
       style="stroke-width:1.44715" />
    <path
       d="M 87.590039,88.449525 57.206774,136.88608 c -0.379442,0.68016 -0.154121,1.44136 0.502738,1.7004 0.403031,0.15918 0.896363,0.097 1.310825,-0.16642 l 7.733549,-4.90583 c 1.487521,-0.94499 2.804569,-2.14322 3.869958,-3.5238 L 129.54685,60.717576 Z"
       fill="#029bc5"
       id="path12"
       style="stroke-width:1.44715" />
    <path
       d="m 10.920821,86.832339 c -0.50679,-0.173223 -1.1099608,-0.08336 -1.6190668,0.240806 l -6.3927676,4.0714 c -0.8710372,0.554402 -1.2182075,1.62008 -0.7755255,2.380845 0.084369,0.14457 0.1939175,0.271919 0.3251737,0.376692 L 20.369672,108.24677 39.201383,96.484225 Z"
       fill="#029bc5"
       id="path14"
       style="stroke-width:1.44715" />
    <path
       d="m 26.373012,110.83311 -9.640163,13.50043 c -0.141241,0.19391 -0.108102,0.43848 0.07424,0.54412 0.1314,0.0767 0.310847,0.0622 0.456719,-0.0347 l 5.974253,-3.78573 c 0.04631,-0.0304 0.08842,-0.0666 0.123152,-0.10854 l 14.085796,-17.12683 z"
       fill="#029bc5"
       id="path16"
       style="stroke-width:1.44715" />
    <path
       d="m 153.77497,35.706262 c -1.67,-0.268301 -3.40368,-0.325608 -5.15907,-0.171342 -1.70908,2.389383 -2.80023,5.073405 -3.16781,7.784488 -0.026,0.544561 0.41244,0.936593 0.98117,0.875523 0.17655,-0.0191 0.3531,-0.08118 0.51084,-0.180748 l 11.00989,-7.01041 c -1.28796,-0.634718 -2.69314,-1.071467 -4.17502,-1.297511 z"
       fill="#029bc5"
       id="path18"
       style="stroke-width:1.44715" />
    <path
       d="m 129.78274,48.597584 7.18797,-4.539553 6.69595,11.387592 -7.18798,4.539553 z"
       fill="#d5d6db"
       id="path20"
       style="stroke-width:1.44715" />
    <path
       d="m 125.26041,53.101392 c -0.86684,0.548757 -1.21271,1.603437 -0.77278,2.355519 l 0.712,1.218497 c 0.46887,0.732835 1.53831,0.861776 2.38924,0.287693 0.8104,-0.546732 1.13745,-1.540487 0.74672,-2.27419 l -0.71199,-1.218497 c -0.43994,-0.751503 -1.4978,-0.916767 -2.36319,-0.369022 z"
       fill="#3a556a"
       id="path22"
       style="stroke-width:1.44715" />
    <path
       d="m 118.7989,57.113604 c -0.86539,0.548613 -1.21271,1.603293 -0.77278,2.35552 l 0.71345,1.218352 c 0.46887,0.732979 1.53831,0.86192 2.38924,0.287837 0.8104,-0.546732 1.13601,-1.540487 0.74672,-2.27419 l -0.71344,-1.218497 c -0.43993,-0.751213 -1.49635,-0.916622 -2.36319,-0.369022 z"
       fill="#3a556a"
       id="path24"
       style="stroke-width:1.44715" />
    <path
       d="m 112.33595,61.126974 c -0.86395,0.549481 -1.20982,1.602859 -0.76989,2.354217 l 0.712,1.218497 c 0.46888,0.73298 1.53832,0.861776 2.38924,0.287693 0.8104,-0.546732 1.13746,-1.540342 0.74673,-2.274045 l -0.712,-1.218497 c -0.43993,-0.752082 -1.49924,-0.916767 -2.36608,-0.367865 z"
       fill="#3a556a"
       id="path26"
       style="stroke-width:1.44715" />
    <path
       d="m 105.87603,65.139042 c -0.86525,0.549481 -1.21025,1.602859 -0.77089,2.354362 l 0.71243,1.218497 c 0.46873,0.732834 1.53846,0.861775 2.38981,0.287692 0.81012,-0.546732 1.13645,-1.540487 0.74601,-2.27419 l -0.71243,-1.218497 c -0.44008,-0.751792 -1.49881,-0.916477 -2.36493,-0.367864 z"
       fill="#3a556a"
       id="path28"
       style="stroke-width:1.44715" />
    <path
       d="M 99.415971,69.151543 C 98.550289,69.70117 98.205,70.754981 98.644643,71.506774 l 0.712864,1.219075 c 0.439498,0.751359 1.497793,0.915899 2.363623,0.367576 0.86597,-0.548469 1.2117,-1.602281 0.7722,-2.353783 l -0.71287,-1.218932 c -0.43834,-0.752226 -1.4962,-0.917924 -2.362607,-0.370324 -7.24e-4,4.34e-4 -0.0012,7.23e-4 -0.0019,0.0012 z"
       fill="#3a556a"
       id="path30"
       style="stroke-width:1.44715" />
    <path
       d="m 92.955333,73.163611 c -0.865683,0.549771 -1.210827,1.603583 -0.771184,2.355375 l 0.712864,1.218931 c 0.439353,0.751503 1.497651,0.916044 2.363623,0.367575 0.865828,-0.548468 1.211551,-1.60228 0.772197,-2.353638 l -0.712864,-1.219076 c -0.43834,-0.752082 -1.496204,-0.91778 -2.362755,-0.370325 -7.24e-4,5.79e-4 -0.0014,0.001 -0.0019,0.0012 z"
       fill="#3a556a"
       id="path32"
       style="stroke-width:1.44715" />
    <path
       d="m 86.494405,77.175968 c -0.865683,0.549626 -1.210827,1.603438 -0.771185,2.35523 l 0.712865,1.218931 c 0.440511,0.75078 1.499243,0.913584 2.364202,0.364537 0.863512,-0.548324 1.208512,-1.59982 0.771184,-2.350455 L 88.858607,77.54528 C 88.419254,76.793343 87.3611,76.627934 86.494405,77.175968 Z"
       fill="#3a556a"
       id="path34"
       style="stroke-width:1.44715" />
    <path
       d="m 80.033476,81.188181 c -0.865682,0.549626 -1.210827,1.603437 -0.771184,2.35523 l 0.712864,1.219076 c 0.440512,0.750779 1.499244,0.913583 2.364203,0.364391 0.863512,-0.548179 1.208512,-1.59982 0.771184,-2.35031 l -0.712864,-1.219076 c -0.439354,-0.751937 -1.497507,-0.917346 -2.364203,-0.369311 z"
       fill="#3a556a"
       id="path36"
       style="stroke-width:1.44715" />
    <path
       d="m 73.573127,85.200248 c -0.865683,0.549626 -1.210972,1.603438 -0.771329,2.35523 l 0.712864,1.218931 c 0.440512,0.75078 1.499388,0.913728 2.364348,0.364537 0.863512,-0.548324 1.208511,-1.59982 0.771039,-2.35031 l -0.712864,-1.218931 c -0.439643,-0.751793 -1.497796,-0.917202 -2.364058,-0.369457 z"
       fill="#3a556a"
       id="path38"
       style="stroke-width:1.44715" />
    <path
       d="m 67.110462,89.213474 c -0.865972,0.548468 -1.211695,1.60228 -0.772197,2.353783 l 8.69e-4,0.0016 0.712864,1.218932 c 0.440511,0.750779 1.499243,0.913728 2.364347,0.364536 0.863512,-0.548324 1.208512,-1.59982 0.771039,-2.350455 L 69.47452,89.58293 c -0.439209,-0.752082 -1.497507,-0.917491 -2.364058,-0.369456 z"
       fill="#3a556a"
       id="path40"
       style="stroke-width:1.44715" />
    <path
       d="m 60.651416,93.224528 c -0.865828,0.548469 -1.211551,1.60228 -0.772198,2.353639 l 10e-4,0.0016 0.712865,1.218931 c 0.440511,0.75078 1.499243,0.913728 2.364202,0.364537 0.863657,-0.548179 1.208656,-1.59982 0.771184,-2.35031 l -0.712864,-1.218931 c -0.439643,-0.751793 -1.497796,-0.917202 -2.364202,-0.369457 z"
       fill="#3a556a"
       id="path42"
       style="stroke-width:1.44715" />
  </g>
</svg>
