<svg width="51" height="51" viewBox="0 0 51 51" fill="none" xmlns="http://www.w3.org/2000/svg">
<path d="M35.815 32.2607L44.8005 30.5491L40.9293 18.0753L25.8857 22.7765L25.4765 22.9043L25.1018 22.6961L16.403 17.8635L8.15526 19.1658L9.03265 30.5718L17.3096 33.1856L24.8803 25.6149L25.4735 25.0216L26.1609 25.5028L35.815 32.2607Z" fill="#F1A501" stroke="white" stroke-width="2"/>
<path d="M17.2089 29.0369L17.2088 29.0368L17.1993 29.0466C16.2851 29.9862 15.1949 30.446 13.868 30.446C12.5427 30.446 11.4334 29.9869 10.486 29.0418C9.61332 28.142 9.118 26.842 9.118 25.006C9.118 23.17 9.61332 21.87 10.486 20.9702C11.4334 20.0251 12.5427 19.566 13.868 19.566C15.1949 19.566 16.2851 20.0258 17.1993 20.9654L17.1992 20.9654L17.2089 20.9751C18.1101 21.8763 18.618 23.1742 18.618 25.006C18.618 26.8378 18.1101 28.1357 17.2089 29.0369ZM4.65089 15.6969L4.65088 15.6969L4.6461 15.7017C2.20587 18.1754 1 21.303 1 25.006C1 28.709 2.20587 31.8366 4.6461 34.3103L4.64608 34.3103L4.65089 34.3151C7.12002 36.7842 10.2166 38.012 13.868 38.012C17.5182 38.012 20.6015 36.7848 23.0414 34.3128C24.0536 33.3001 24.8564 32.1774 25.4516 30.95C26.0388 32.176 26.8307 33.2979 27.8294 34.3103L27.8294 34.3103L27.8342 34.3151C30.3033 36.7842 33.3999 38.012 37.0513 38.012C40.7014 38.012 43.7847 36.7849 46.2245 34.313C48.6959 31.8405 49.9193 28.7121 49.9193 25.006C49.9193 21.2999 48.6959 18.1715 46.2246 15.6991C43.7847 13.2271 40.7014 12 37.0513 12C33.3999 12 30.3033 13.2278 27.8342 15.6969L27.8342 15.6969L27.8294 15.7017C26.8307 16.7141 26.0388 17.836 25.4516 19.062C24.8565 17.8346 24.0536 16.7119 23.0415 15.6992C20.6016 13.2272 17.5182 12 13.868 12C10.2166 12 7.12002 13.2278 4.65089 15.6969ZM40.3922 29.0369L40.3921 29.0368L40.3826 29.0466C39.4684 29.9862 38.3782 30.446 37.0513 30.446C35.726 30.446 34.6167 29.9869 33.6693 29.0418C32.7966 28.142 32.3013 26.8419 32.3013 25.006C32.3013 23.1701 32.7966 21.87 33.6693 20.9702C34.6167 20.0251 35.726 19.566 37.0513 19.566C38.3782 19.566 39.4684 20.0258 40.3826 20.9654L40.3825 20.9654L40.3922 20.9751C41.2933 21.8763 41.8013 23.1742 41.8013 25.006C41.8013 26.8378 41.2933 28.1357 40.3922 29.0369Z" fill="black" stroke="white" stroke-width="2"/>
</svg>
